/* XPM */
static char *fd_normal[] = {
/* width height ncolors chars_per_pixel */
"16 16 2 1",
/* colors */
"  c #9B9B9B",
". c #C0C0C0",
/* pixels */
"................",
"................",
"..          ....",
".. . .... .  ...",
".. . .... . . ..",
".. . ...... . ..",
".. .        . ..",
".. .......... ..",
".. .        . ..",
".. . ...... . ..",
".. . ...... . ..",
".. . ...... . ..",
".. . ...... . ..",
"..            ..",
"................",
"................"
};
