/* XPM */
static char *hd_inuse[] = {
/* width height ncolors chars_per_pixel */
"16 16 3 1",
/* colors */
"  c #009F50",
". c #C0C0C0",
"X c #00E171",
/* pixels */
"................",
"................",
".....      .....",
"...  XXXXXX  ...",
".. XXXXXXXXXX ..",
"..   XXXXXX   ..",
".. XX      XX ..",
".. XXXXXXXXXX ..",
".. XXXXXXXXXX ..",
".. XXXXXXXXXX ..",
".. XXXXXXXXXX ..",
".. XXXXXXXXXX ..",
"...  XXXXXX  ...",
".....      .....",
"................",
"................"
};
