#define keropi_mono_width 32
#define keropi_mono_height 32
static char keropi_mono_bits[] = {
  0x00, 0x00, 0x00, 0x00, 0x00, 0x00, 0x00, 0x00, 0x00, 0x00, 0x00, 0x00, 
  0x00, 0x00, 0x00, 0x00, 0x00, 0x00, 0x00, 0x00, 0x00, 0x00, 0x00, 0x00, 
  0x00, 0x00, 0x00, 0x00, 0x00, 0x00, 0x00, 0x00, 0x00, 0x00, 0x00, 0x00, 
  0x00, 0x80, 0x0F, 0x00, 0x00, 0x60, 0x30, 0x00, 0x00, 0x10, 0x47, 0x00, 
  0x00, 0x90, 0xDE, 0x00, 0x7F, 0x48, 0x9C, 0x00, 0xC0, 0xC7, 0x3E, 0x01, 
  0x00, 0xC0, 0x3F, 0x01, 0x00, 0xC0, 0x3F, 0x01, 0x00, 0xC0, 0x3F, 0x01, 
  0x00, 0x80, 0x9F, 0x00, 0x00, 0x00, 0x80, 0x00, 0x00, 0x00, 0x80, 0x00, 
  0x00, 0x00, 0x80, 0x00, 0x00, 0x00, 0x00, 0x01, 0x00, 0x00, 0x00, 0x02, 
  0x00, 0x00, 0x00, 0x02, 0x00, 0x00, 0x00, 0x04, 0x00, 0x00, 0x08, 0x04, 
  0x00, 0x00, 0x06, 0x08, 0x00, 0xC0, 0x01, 0x08, 0x00, 0x3E, 0x00, 0x08, 
  0xFF, 0x01, 0x00, 0x08, 0x00, 0x00, 0x00, 0x08, };
