/* XPM */
static char *keropi_icon[] = {
/* columns rows colors chars-per-pixel */
"32 32 34 1",
"  c black",
". c #291800",
"X c #293800",
"o c #291852",
"O c #293852",
"+ c #295900",
"@ c #007952",
"# c #295952",
"$ c #297952",
"% c #523852",
"& c #525952",
"* c #527952",
"= c #7B5952",
"- c #7B7952",
"; c #009E52",
": c #00BE52",
"> c #299E52",
", c #29BE52",
"< c #29DF52",
"1 c #52BE52",
"2 c #52DF52",
"3 c #29BEAD",
"4 c #29DFAD",
"5 c #52BEAD",
"6 c #52DFAD",
"7 c #848684",
"8 c #AD9EAD",
"9 c #A5A6A5",
"0 c #ADBEAD",
"q c #D6BEAD",
"w c #C6DFC6",
"e c #D6DFFF",
"r c #FFFFF7",
"t c gray100",
/* pixels */
"tttttttttttttttttttttttttttttttt",
"tttttttttttttttttttttttttttttttt",
"tttttttttttttttttttttttttttttttt",
"tttttttttttttttttttttttttttttttt",
"tttttttttttttttttttttttttttttttt",
"tttttttttttttttttttttttttttttttt",
"tttttttttttttttttttttttttttttttt",
"tttttttttttttttttttttttttttttttt",
"tttttttttttttttttttttttttttttttt",
"tttttttttttttrw87*79wrtttttttttt",
"ttttttttttttw&#@>,:>$*wttrtttttt",
"tttttttrtrtw$>,,@+#@,:&etttttrtt",
"rtrrtttttte71<>O&o  .,;-rttrtttt",
"*7***=78wr7,4, 7r9   @,$etrttttt",
",,,13>>**&$26> O7O   .,>0tttttrt",
"2363266242<5<$       X,:7ttrtttt",
"32,<5<,<6,6,6>       O,;*rttttrt",
"<323<56,14,2,6#      +:;&ttttttt",
"6,42,<<6,23,<,,#    O;<@7tttrttt",
",61<5413<3<,3,,,,>$,,,:$qttttttt",
"5<,4,2,<31,,,,,,,,,,,:,#rtrtttrt",
"<5<5<3<5<,4,<,,,,:,:,,:#0tttrttt",
"5<5<1<3,,,,3,,3,,,,,:,::#wtttttt",
"<5<,41<4,4,<,<,,,,:,,,:,@&rtttrt",
",<232,3,<,,,3,,,:3,:,:,::X7ttttt",
"6,323<<,3,4,<,3,,,,>;,:::@orrttt",
",6<,23,6,<,3,,,<,:$#>:,;,:X9tttt",
"5<1431<,,3,<,<4,>+#:,,,::,@%ttrt",
"414,2<3<6<<3,>$#@>:,,::,;,;.wttt",
",6,5,3,>$$$#$#>>,,,,:,,:::,X8ttt",
"##$+#$##$>>,,,<,,,:,,::,:,:@7ttt",
",1,5,126<2423<3,<3,3,,,,,,,$&rtt"
};
