/* XPM */
static char *keropi_xpm[] = {
/* columns rows colors chars-per-pixel */
"64 64 40 1",
"  c black",
". c #2A1F00",
"X c #2A3F00",
"o c #2A1F55",
"O c #2A3F55",
"+ c #2A5F00",
"@ c #007F55",
"# c #2A5F55",
"$ c #2A7F55",
"% c #553F55",
"& c #555F55",
"* c #557F55",
"= c #7F5F55",
"- c #009F55",
"; c #00BF55",
": c #2A9F55",
"> c #2ABF55",
", c #2ADF55",
"< c #559F55",
"1 c #55BF55",
"2 c #55DF55",
"3 c #7FDF55",
"4 c #2ABFAA",
"5 c #2ADFAA",
"6 c #559FAA",
"7 c #55BFAA",
"8 c #7FBFAA",
"9 c #55DFAA",
"0 c #7FDFAA",
"q c #7FFFAA",
"w c #808080",
"e c #AA9FAA",
"r c #A0A0A4",
"t c #AABFAA",
"y c #AAFFAA",
"u c #C0DCC0",
"i c #CCCCFF",
"p c #D4DFFF",
"a c #FFFBF0",
"s c gray100",
/* pixels */
"                                                                ",
"                                                                ",
"                                                                ",
"                                                                ",
"                                                                ",
"                                                                ",
"                                                                ",
"                                                                ",
"                                                                ",
"                                                                ",
"                                                                ",
"                                                                ",
"                                                                ",
"                                                                ",
"                                                                ",
"                          .OOo.                                 ",
"                          &uutew%              o%%&%.           ",
"                          wsaaaspw.           OtuuuuwO          ",
"             .o           OwwwraspO           wapuupaeO         ",
"            .wt&             %tapw.           rse&&wuar.        ",
"            otau%           .wut&             %e%  .wap&        ",
"             &uatO         .wut&.              .    %up&        ",
"      ..      wapwO%.      waatw&&.                 &uu&        ",
"     .ww.    .wpsuuu&      tssappur&.             .=tpr.        ",
"     &pu&  .&russsssw      &putetuau%            owppe%         ",
"     waaw.%rupuupaatO       OOooO&uaw           OruuwO          ",
"     waawoeaur&%&up&              wat.          wau&.           ",
"     %pst%rpw.  Otaw              &uu%         Otar.            ",
"     .esawO%.    rae.             &uu%         %uaw             ",
"      &asu.      &ptO            .wptO         .wwO             ",
"      .usuO      &uu%     .&O   .&uuw.          ..              ",
"       &pp&      %uu&     wauwwwruar.                           ",
"       .eae.     %uu&     tssaaaauwo          .OO.              ",
"        =aaw.    %uaw     &ttttte&.           &paw              ",
"        .rapw.   &ast       ..oo.             rssu              ",
"         OuspO   Ouaw                         %tu&              ",
"         .rauO    O%.                                           ",
"          ow%                                                   ",
"                                                                ",
"                                                                ",
"                                                                ",
"                                               oOXOO            ",
"                                             .O@:>;:#X          ",
"       .O&OOO&O                            O#:>>@+#@>;%         ",
"      O&7000091&                           &1,:O&o  .>-X        ",
"     &<0q0717909#           .oO.OOXXX..  .O>5> war   @>#        ",
"    .<00wX  .X709#.   .%%O#&#::>>>>14:$##O$29: OwO   .>:O       ",
"    %0y6.wr   X909&&&#&<>7>525252494299252,7,$       X>;%       ",
"   .*q0.%si.   <907<19999929>,7>42>,7,>,9>9>9:       O>-#       ",
"   &808  O.    *q9090902915>91,9,424,79>15>2>9#      +;-.       ",
"  .&8q8.       $090909099291,5>>9>52>,,9>24>,>>#    O-,@        ",
"  .&000O       <9020909399257192>91,7514,4,>4>>>>:$>>>;#        ",
"  .&000<      $00909020909972,4,7,>5>2>,41>>>>>>>>>>>;>O        ",
"  .&0000*.  .$099090909092929>24,7,7,4,7,>5>,>>>>;>;>>;#        ",
"   #7000q9777090209399020991951,7,7,1,4>>>>4>>4>>>>>;>;;.       ",
"   O<q000000090909090090909927,7,7,>51,5>5>,>,>>>>;>>>;>@.      ",
"    O000000090209090920902927,9,>,242>4>,>>>4>>>;4>;>;>;;X      ",
"    o<000090209093909090999924249>424,,>4>5>,>4>>>>:->;;;@      ",
"    .*000000909090920902002729>2>9,>24>9>,>4>>>,>;$#:;>->;X     ",
"     *900000<1090900909099999>9,7,1541,>>4>,>,5>:+#;>>>;;>@.    ",
"     &0000007$*7209q909090291251515>2,4,9,,4>:$#@:;>>;;>->-.    ",
"     #00000900<$***<111937919515>9>7>4>:$$$#$#::>>>>;>>;;;>X.   ",
"     O000000090917<$*###$*##+$#+##$+#$##$::>>>,>>>;>>;;>;>;@O   ",
"     O00000000000000000809917141>1>7>129,2524,4>,4>4>>>>>>>$O   "
};
#define	keropi_xpm_width	64
#define	keropi_xpm_height	64
