/* XPM */
static char *motorola[] = {
/* columns rows colors chars-per-pixel */
"41 48 40 1",
"  c black",
". c #2A1F00",
"X c #2A3F00",
"o c #2A1F55",
"O c #2A3F55",
"+ c #553F55",
"@ c #555F55",
"# c #7F5F55",
"$ c #7F7F55",
"% c blue",
"& c #2A1FFF",
"* c #2A3FFF",
"= c #2A5FFF",
"- c #2A7FFF",
"; c #553FFF",
": c #7F7FAA",
"> c #555FFF",
", c #557FFF",
"< c #7F7FFF",
"1 c #559FFF",
"2 c #7F9FFF",
"3 c #7FBFFF",
"4 c #808080",
"5 c #A0A0A4",
"6 c #AABFAA",
"7 c #AA9FFF",
"8 c #AABFFF",
"9 c #A6CAF0",
"0 c #AADFFF",
"q c #D4BFAA",
"w c #D4BFFF",
"e c #C0DCC0",
"r c #CCCCFF",
"t c #D4DFFF",
"y c #CCFFFF",
"u c #D4FFFF",
"i c #FFCCFF",
"p c #FFDFFF",
"a c #FFFBF0",
"s c gray100",
/* pixels */
"sssssssssssssssssssssssssssssssssssssssss",
"sssssssssssssssssssst822,==;=,,78tsssssss",
"ssssssssssssssssst2>*%*%*%*%*%&&&,sssssss",
"sssssssssssssst2=*%%**%*&*&%%%**%,sssssss",
"sssssssssssss2*%*%***=11233ssss**1sssssss",
"sssssssssss8>**&*=-2yasassss=209,7sssssss",
"ssssssssss,**%*-8tsssssssass=2satusssssss",
"ssssssss8=&%*,tssssssssssssa=2u*,>tssssss",
"sssssss,&%*3ussssssssssst78t=<r*8*rssssss",
"ssssss8%*-tsssssssssssas2*,2=29*9*8*sssss",
"ssssss=*,assssssssssst22===2=,t&=8*,sssss",
"sssss1%,sssssssssa2<r=%,=9=9=<s2,2u88ssss",
"ssssr%=ssssssssa=8*,,2*r,*=9,=8sasu&=usss",
"ssss,%8ssssssas2%=*8,<*tr=9tasssssu=%8sss",
"ssst&98s==st,<t=*,*8,2*asaassssssss3%>sss",
"sss=*2=a==s8*=2r*8==2t9ssssst8sssssa=*tss",
"ssu*-=*2**2=*8,r*9atasssssss>&9sssss7&9ss",
"ssr%2=%=*%2=*,=t,=ssssssssss=*rr*=ts8&8ss",
"ss3*2*****>9**9sasssssss,<ss=*t>*=3s8*7ss",
"ss2*2*2&2*=satssssssssrs,,s2**2*2=7s8%9ss",
"ss7*,*2*2**usssssssss,*88rr***,**=ts<*yss",
"ss8*,*2*2**as88ttsss<%*2*,,=,*,*222s==sss",
"ss8*22r3t88ss2<,*8=3-*9t&,>3,*2*<&2t%2sss",
"sst*=ssasssss78,%*&>,*rt*,=,**r2=,t,=asss",
"sss2%7sssssss*,1&1=*s2*2*,,&=&tass2%9ssss",
"sssa**tssssss=<2%t2*t3%2*,t83*tsss*=sssss",
"ssss3%>ssssss>,1*t3*3**r=2ssaussu>*tsssss",
"ssssu,%2sssss,<2%tr*=%2sassssss8=%3ssssss",
"ssssst=%,tsss,,t2at*2tssssssst<*%,sssssss",
"ssssssr*%*2ss2,sssssassssssp8=%*1ssssssss",
"sssssss3**%=,rssssssssssp82=%%-rsssssssss",
"sssssssst,=*%*>,228872,==*%*,9sssssssssss",
"sssssssssss8,*%%%%*%%&%*&=8ssssssssssssss",
"ssssssssssssst921-==-,18tssssssssssssssss",
"sssssssssssssssssasssssssssssssssssssssss",
"ssateapeasse5esst6ase5assa6tsse5tsse5asss",
"sss+ 45 5a@  +se.+tao .ta. .ae  .e5  Oass",
"ssa. 44 45 465ao es@Oe 54 5.:+.5 @++4 4ss",
"sst. .O @+.sss5  .5a.+ e@os@+ 4s4 .6s.@ss",
"sse @ .++O.assO.eo.OOe 4+Xa+O 4s@ o5ao+ss",
"ss6 eo@e.6 o45@ 4.OO.4 45 @.5@ 4 @@.4 5ss",
"ssq t$4eos5. @aO .esO Oaa+ +seo Oa6  @ass",
"sssaasaaaasteaaattsaaeaasatassaeassaessss",
"ssssssss8,122<1,,,,=>>,>=,,,,,,,,>,,,ssss",
"sssssssssspsuutttrrr88211<,>==****&%*tsss",
"sssseee6s6pepe5a5eqtaqa5essssssuuut00ssss",
"ssss555+e45ee5#a@e4q54e+5ssssssssssssssss",
"sssatat6p6peie5a5wqet6sqessssssssssssssss"
};
